<svg width="251" height="78" viewBox="0 0 251 78" fill="none" xmlns="http://www.w3.org/2000/svg">
<path d="M61.312 62V17.2H80.704C84.7147 17.2 88.1707 17.8613 91.072 19.184C93.9733 20.464 96.2133 22.32 97.792 24.752C99.3707 27.184 100.16 30.0853 100.16 33.456C100.16 36.784 99.3707 39.664 97.792 42.096C96.2133 44.4853 93.9733 46.32 91.072 47.6C88.1707 48.88 84.7147 49.52 80.704 49.52H67.072L71.68 44.976V62H61.312ZM89.792 62L78.592 45.744H89.664L100.992 62H89.792ZM71.68 46.128L67.072 41.264H80.128C83.328 41.264 85.7173 40.5813 87.296 39.216C88.8747 37.808 89.664 35.888 89.664 33.456C89.664 30.9813 88.8747 29.0613 87.296 27.696C85.7173 26.3307 83.328 25.648 80.128 25.648H67.072L71.68 20.72V46.128ZM124.055 62.512C120.385 62.512 117.121 61.744 114.263 60.208C111.447 58.672 109.207 56.5813 107.543 53.936C105.921 51.248 105.111 48.1973 105.111 44.784C105.111 41.328 105.921 38.2773 107.543 35.632C109.207 32.944 111.447 30.8533 114.263 29.36C117.121 27.824 120.385 27.056 124.055 27.056C127.681 27.056 130.924 27.824 133.783 29.36C136.641 30.8533 138.881 32.9227 140.503 35.568C142.124 38.2133 142.935 41.2853 142.935 44.784C142.935 48.1973 142.124 51.248 140.503 53.936C138.881 56.5813 136.641 58.672 133.783 60.208C130.924 61.744 127.681 62.512 124.055 62.512ZM124.055 54.32C125.719 54.32 127.212 53.936 128.535 53.168C129.857 52.4 130.903 51.312 131.671 49.904C132.439 48.4533 132.823 46.7467 132.823 44.784C132.823 42.7787 132.439 41.072 131.671 39.664C130.903 38.256 129.857 37.168 128.535 36.4C127.212 35.632 125.719 35.248 124.055 35.248C122.391 35.248 120.897 35.632 119.575 36.4C118.252 37.168 117.185 38.256 116.375 39.664C115.607 41.072 115.223 42.7787 115.223 44.784C115.223 46.7467 115.607 48.4533 116.375 49.904C117.185 51.312 118.252 52.4 119.575 53.168C120.897 53.936 122.391 54.32 124.055 54.32ZM118.103 23.152L126.743 13.936H137.495L125.911 23.152H118.103ZM163.688 62.512C159.635 62.512 156.477 61.488 154.216 59.44C151.955 57.3493 150.824 54.256 150.824 50.16V19.952H160.808V50.032C160.808 51.4827 161.192 52.6133 161.96 53.424C162.728 54.192 163.773 54.576 165.096 54.576C166.675 54.576 168.019 54.1493 169.128 53.296L171.816 60.336C170.792 61.0613 169.555 61.616 168.104 62C166.696 62.3413 165.224 62.512 163.688 62.512ZM145.512 36.016V28.336H169.384V36.016H145.512ZM191.949 62.512C189.09 62.512 186.53 61.9573 184.269 60.848C182.05 59.7387 180.322 58.0533 179.085 55.792C177.847 53.488 177.229 50.5653 177.229 47.024V27.568H187.213V45.552C187.213 48.4107 187.81 50.5227 189.005 51.888C190.242 53.2107 191.97 53.872 194.189 53.872C195.725 53.872 197.09 53.552 198.285 52.912C199.479 52.2293 200.418 51.2053 201.101 49.84C201.783 48.432 202.125 46.6827 202.125 44.592V27.568H212.109V62H202.637V52.528L204.365 55.28C203.213 57.6693 201.506 59.4827 199.245 60.72C197.026 61.9147 194.594 62.512 191.949 62.512ZM232.942 62.512C229.998 62.512 227.161 62.1707 224.43 61.488C221.742 60.7627 219.609 59.8667 218.03 58.8L221.358 51.632C222.937 52.6133 224.793 53.424 226.926 54.064C229.102 54.6613 231.235 54.96 233.326 54.96C235.63 54.96 237.251 54.6827 238.19 54.128C239.171 53.5733 239.662 52.8053 239.662 51.824C239.662 51.0133 239.278 50.416 238.51 50.032C237.785 49.6053 236.803 49.2853 235.566 49.072C234.329 48.8587 232.963 48.6453 231.47 48.432C230.019 48.2187 228.547 47.9413 227.054 47.6C225.561 47.216 224.195 46.6613 222.958 45.936C221.721 45.2107 220.718 44.2293 219.95 42.992C219.225 41.7547 218.862 40.1547 218.862 38.192C218.862 36.016 219.481 34.096 220.718 32.432C221.998 30.768 223.833 29.4667 226.222 28.528C228.611 27.5467 231.47 27.056 234.798 27.056C237.145 27.056 239.534 27.312 241.966 27.824C244.398 28.336 246.425 29.0827 248.046 30.064L244.718 37.168C243.054 36.1867 241.369 35.5253 239.662 35.184C237.998 34.8 236.377 34.608 234.798 34.608C232.579 34.608 230.958 34.9067 229.934 35.504C228.91 36.1013 228.398 36.8693 228.398 37.808C228.398 38.6613 228.761 39.3013 229.486 39.728C230.254 40.1547 231.257 40.496 232.494 40.752C233.731 41.008 235.075 41.2427 236.526 41.456C238.019 41.6267 239.513 41.904 241.006 42.288C242.499 42.672 243.843 43.2267 245.038 43.952C246.275 44.6347 247.278 45.5947 248.046 46.832C248.814 48.0267 249.198 49.6053 249.198 51.568C249.198 53.7013 248.558 55.6 247.278 57.264C245.998 58.8853 244.142 60.1653 241.71 61.104C239.321 62.0427 236.398 62.512 232.942 62.512Z" fill="#3EA896"/>
<path d="M37.375 5H8.625C0 5 0 5 0 13.625V53.875C0 62.5 0 62.5 8.625 62.5H37.375C46 62.5 46 62.5 46 53.875V13.625L37.375 5Z" fill="#3EA896"/>
<path d="M29.325 29.725H5.17495C3.9047 29.725 3.44995 30.3686 3.44995 31.1625C3.44995 31.9564 3.9047 32.6 5.17495 32.6H29.325C30.5952 32.6 31.0499 31.9564 31.0499 31.1625C31.0499 30.3686 30.5952 29.725 29.325 29.725Z" fill="white"/>
<path d="M40.825 34.325H16.675C15.4047 34.325 14.95 34.9685 14.95 35.7625C14.95 36.5564 15.4047 37.2 16.675 37.2H40.825C42.0952 37.2 42.5499 36.5564 42.5499 35.7625C42.5499 34.9685 42.0952 34.325 40.825 34.325Z" fill="white"/>
<path d="M35.075 38.925H10.925C9.6547 38.925 9.19995 39.5686 9.19995 40.3625C9.19995 41.1565 9.6547 41.8 10.925 41.8H35.075C36.3452 41.8 36.7999 41.1565 36.7999 40.3625C36.7999 39.5686 36.3452 38.925 35.075 38.925Z" fill="white"/>
<path d="M35.075 25.125H10.925C9.6547 25.125 9.19995 25.7686 9.19995 26.5625C9.19995 27.3564 9.6547 28 10.925 28H35.075C36.3452 28 36.7999 27.3564 36.7999 26.5625C36.7999 25.7686 36.3452 25.125 35.075 25.125Z" fill="white"/>
</svg>
